# AST/ASF file generated using VICON BodyLanguage
# -----------------------------------------------
:version 1.10
:name VICON
:units
  mass 1.0
  length 0.45
  angle deg
:documentation
   .ast/.asf automatically generated from VICON data using
   VICON BodyBuilder and BodyLanguage model FoxedUp or BRILLIANT.MOD
:root
   order TX TY TZ RX RY RZ
   axis XYZ
   position 0 0 0  
   orientation 0 0 0 
:bonedata
  begin
     id 1 
     name lhipjoint
     direction 0.603808 -0.713975 0.35448 
     length 2.2025 
     axis 0 0 0  XYZ
  end
  begin
     id 2 
     name lfemur
     direction 0.34202 -0.939693 0  
     length 6.55877  
     axis 0 0 20  XYZ
    dof rx ry rz
    limits (-160.0 20.0)
           (-70.0 70.0)
           (-60.0 70.0)
  end
  begin
     id 3 
     name ltibia
     direction 0.34202 -0.939693 0   
     length 6.80302   
     axis 0 0 20   XYZ
    dof rx
    limits (-10.0 170.0)
  end
  begin
     id 4 
     name lfoot
     direction 0.091848 -0.25235 0.963267   
     length 2.03446   
     axis -90 7.62852e-016 20   XYZ
    dof rx rz
    limits (-45.0 90.0)
           (-70.0 20.0)
  end
  begin
     id 5 
     name ltoes
     direction 1.53608e-011 -4.21925e-011 1   
     length 1.02033   
     axis -90 7.62852e-016 20   XYZ
    dof rx
    limits (-90.0 20.0)
  end
  begin
     id 6 
     name rhipjoint
     direction -0.587285 -0.724947 0.359928   
     length 2.16916  
     axis 0 0 0  XYZ 
  end
  begin
     id 7 
     name rfemur
     direction -0.34202 -0.939693 0   
     length 6.43173   
     axis 0 0 -20   XYZ
    dof rx ry rz
    limits (-160.0 20.0)
           (-70.0 70.0)
           (-70.0 60.0)
  end
  begin
     id 8 
     name rtibia
     direction -0.34202 -0.939693 0   
     length 6.70662   
     axis 0 0 -20   XYZ
    dof rx
    limits (-10.0 170.0)
 end
 begin
     id 9 
     name rfoot
     direction -0.11854 -0.325686 0.938018   
     length 2.0773  
     axis -90 -7.62852e-016 -20   XYZ
    dof rx rz
    limits (-45.0 90.0)
           (-20.0 70.0)
  end
  begin
     id 10 
     name rtoes
     direction -1.53547e-011 -4.21838e-011 1   
     length 1.03267   
     axis -90 -7.62852e-016 -20   XYZ
    dof rx
    limits (-90.0 20.0)
  end
  begin
     id 11 
     name lowerback
     direction -0.0286554 0.999539 0.0100613   
     length 2.08751   
     axis 0 0 0   XYZ
    dof rx ry rz
    limits (-20.0 45.0)
           (-30.0 30.0)
           (-30.0 30.0)
  end
  begin
     id 12 
     name upperback
     direction 0.0227093 0.999705 -0.00860929   
     length 2.08517   
     axis 0 0 0   XYZ
    dof rx ry rz
    limits (-20.0 45.0)
           (-30.0 30.0)
           (-30.0 30.0)
  end
  begin
     id 13 
     name thorax
     direction 0.0351627 0.999285 -0.013892   
     length 2.08412   
     axis 0 0 0   XYZ
    dof rx ry rz
    limits (-20.0 45.0)
           (-30.0 30.0)
           (-30.0 30.0)
  end
  begin
     id 14 
     name lowerneck
     direction -0.0696283 0.997344 0.0213922   
     length 1.44164   
     axis 0 0 0   XYZ
    dof rx ry rz
    limits (-20.0 45.0)
           (-30.0 30.0)
           (-30.0 30.0)
  end
  begin
     id 15 
     name upperneck
     direction 0.0531 0.990412 -0.127531   
     length 1.45022   
     axis 0 0 0   XYZ
    dof rx ry rz
    limits (-20.0 45.0)
           (-30.0 30.0)
           (-30.0 30.0)
  end
  begin
     id 16
     name head
     direction 0.0188154 0.998548 -0.0504727  
     length 1.45845  
     axis 0 0 0   XYZ
    dof rx ry rz
    limits (-20.0 45.0)
           (-30.0 30.0)
           (-30.0 30.0)
  end
  begin
     id 17 
     name lclavicle
     direction 0.961559 0.260051 0.088188  
     length 2.86057  
     axis 0 0 0   XYZ
    dof ry rz
    limits (-20.0 10.0)
           (0.0 20.0)
  end
  begin
     id 18 
     name lhumerus
     direction 1 -4.48959e-011 2.88185e-027   
     length 4.36901   
     axis 180 -30 -90   XYZ
    dof rx ry rz
    limits (-60.0 90.0)
           (-90.0 90.0)
           (-90.0 90.0)
  end
  begin
     id 19
     name lradius
     direction 1 -4.48965e-011 -3.92618e-028   
     length 3.21737   
     axis 180 -30 -90   XYZ
    dof rx
    limits (-10.0 170.0)
  end
  begin
     id 20
     name lwrist
     direction 1 -4.49037e-011 2.57246e-027   
     length 1.60869   
     axis -1.61769e-015 90 90   XYZ
    dof ry
    limits (-180.0 0.0)
 end
  begin
     id 21 
     name lhand
     direction 1 -4.48807e-011 5.12958e-027   
     length 0.564313   
     axis -3.27988e-015 90 90   XYZ
    dof rx rz
    limits (-90.0 90.0)
           (-45.0 45.0)
  end
  begin
     id 22 
     name lfingers
     direction 1 -4.48879e-011 1.02687e-026   
     length 0.454963   
     axis -6.5598e-015 90 90   XYZ
    dof rx
    limits (0.0 90.0)
  end
  begin
     id 23
     name lthumb
     direction 0.707107 -6.3475e-011 0.707107   
     length 0.653239   
     axis -90 45 2.19363e-014   XYZ
    dof rx rz
    limits (-45.0 45.0)
           (-45.0 45.0)
  end
  begin
     id 24 
     name rclavicle
     direction -0.954677 0.253915 0.155304   
     length 3.11497  
     axis 0 0 0   XYZ 
    dof ry rz
    limits (-10.0 20.0)
           (-20.0 0.0)
  end
  begin
     id 25 
     name rhumerus
     direction -1 -4.48958e-011 -8.20169e-028  
     length 4.34118   
     axis 180 30 90   XYZ
    dof rx ry rz
    limits (-90.0 60.0)
           (-90.0 90.0)
           (-90.0 90.0)
  end
  begin
     id 26 
     name rradius
     direction -1 -4.48978e-011 1.5676e-027   
     length 3.09531   
     axis 180 30 90   XYZ
    dof rx
    limits (-10.0 170.0)
  end
  begin
     id 27 
     name rwrist
     direction -1 -4.49001e-011 2.57123e-027   
     length 1.54765   
     axis -1.61769e-015 -90 -90   XYZ
    dof ry
    limits (-180.0 0.0)
  end
  begin
     id 28
     name rhand
     direction -1 -4.48847e-011 5.13225e-027   
     length 0.597446   
     axis -3.27988e-015 -90 -90   XYZ
    dof rx rz
    limits (-90.0 90.0)
           (-45.0 45.0)
  end
  begin
     id 29
     name rfingers
     direction -1 -4.49094e-011 1.02974e-026   
     length 0.481677   
     axis -6.5598e-015 -90 -90   XYZ
    dof rx
    limits (0.0 90.0)
  end
  begin
     id 30
     name rthumb
     direction -0.707107 -6.34859e-011 0.707107   
     length 0.691594   
     axis -90 -45 -2.19363e-014   XYZ
    dof rx rz
    limits (-45.0 45.0)
           (-45.0 45.0)
  end
:hierarchy
  begin
    root lhipjoint rhipjoint lowerback
    lhipjoint lfemur
    lfemur ltibia
    ltibia lfoot
    lfoot ltoes
    rhipjoint rfemur
    rfemur rtibia
    rtibia rfoot
    rfoot rtoes
    lowerback upperback
    upperback thorax
    thorax lowerneck lclavicle rclavicle
    lowerneck upperneck
    upperneck head
    lclavicle lhumerus
    lhumerus lradius
    lradius lwrist
    lwrist lhand lthumb
    lhand lfingers
    rclavicle rhumerus
    rhumerus rradius
    rradius rwrist
    rwrist rhand rthumb
    rhand rfingers
  end

#!OML:ASF I:\Acrobat_Osman\acrobat\cartwheel_test 2\Patient 1\Session 1\acrobat.ASF
:FULLY-SPECIFIED
:DEGREES
361
root 7.83806 14.5022 -25.9949 -338.935 378.479 1.68048
lowerback 5.35816 -3.38062 -3.61568
upperback -0.119306 -4.60017 4.40537
thorax -2.47478 -2.23018 6.94706
lowerneck 0.115494 -14.1807 -10.837
upperneck -9.56756 -18.4319 15.0674
head -0.39247 -9.36809 5.89426
rclavicle -5.20816e-014 4.85035e-014
rhumerus -15.9009 49.4692 -92.5221
rradius 128.398
rwrist 6.81106
rhand -42.0483 58.967
rfingers 7.12502
rthumb -14.9417 29.526
lclavicle -5.20816e-014 4.85035e-014
lhumerus -35.7596 -48.1766 107.542
lradius 130.879
lwrist -0.285135
lhand -37.007 -329.214
lfingers 7.12502
lthumb -10.0814 60.5245
rfemur -61.2367 -8.32944 17.8318
rtibia 50.3124
rfoot -8.08363 1.80148
rtoes -21.2696
lfemur -368.693 -10.9797 -380.891
ltibia 29.4582
lfoot -39.1079 39.5074
ltoes -17.2202
362
root 7.79825 14.4994 -26.0721 -339.469 377.905 1.5537
lowerback 5.3206 -3.55004 -3.53871
upperback -0.235475 -4.82303 4.32222
thorax -2.55573 -2.3381 6.82982
lowerneck -0.135899 -14.0266 -10.6777
upperneck -8.94507 -18.2604 14.575
head -0.259419 -9.25524 5.69805
rclavicle 5.76476e-015 1.35174e-014
rhumerus -15.3848 48.9169 -91.8606
rradius 128.842
rwrist 3.88357
rhand -38.3093 60.8156
rfingers 7.12502
rthumb -11.3375 31.1421
lclavicle 5.76476e-015 1.35174e-014
lhumerus -35.2005 -48.183 107.027
lradius 131.028
lwrist 0.0770642
lhand -36.7367 -328.756
lfingers 7.12502
lthumb -9.8206 60.9955
rfemur -60.9201 -7.94486 17.9503
rtibia 49.9125
rfoot -8.24611 1.88144
rtoes -20.5726
lfemur -368.329 -10.1006 -380.914
ltibia 29.2355
lfoot -39.2041 39.5443
ltoes -16.6594
363
root 7.76321 14.4992 -26.1378 -339.831 377.199 1.63348
lowerback 4.08639 -3.66202 -3.64532
upperback 0.356593 -4.96795 4.19795
thorax -1.23236 -2.46694 6.6341
lowerneck -0.318647 -13.9022 -10.3471
upperneck -9.29137 -18.0495 14.5263
head -0.391481 -9.15777 5.65991
rclavicle 1.78906e-014 6.75868e-015
rhumerus -13.2667 48.0254 -90.0044
rradius 129.114
rwrist 1.53579
rhand -34.7386 62.404
rfingers 7.12502
rthumb -7.89249 32.5714
lclavicle 1.78906e-014 6.75868e-015
lhumerus -32.4162 -48.8008 105.102
lradius 130.558
lwrist 0.27831
lhand -36.4338 -328.69
lfingers 7.12502
lthumb -9.52833 61.0746
rfemur -60.7296 -7.66737 17.8817
rtibia 49.6185
rfoot -8.89763 1.80426
rtoes -20.0278
lfemur -367.937 -9.35898 -381.214
ltibia 28.9628
lfoot -39.8363 39.138
ltoes -14.6601
364
root 7.7268 14.504 -26.1902 -340.289 376.403 1.64103
lowerback 5.16241 -3.81466 -3.98193
upperback -0.61896 -5.19813 4.45568
thorax -2.76147 -2.50498 7.2503
lowerneck 0.132262 -13.5703 -10.3661
upperneck -8.38818 -17.7309 13.4829
head -0.343825 -8.96889 5.38494
rclavicle -1.55052e-014 5.56597e-015
rhumerus -16.3859 50.0577 -91.5667
rradius 128.638
rwrist 8.9645
rhand -44.1982 56.6593
rfingers 7.12502
rthumb -17.012 27.3842
lclavicle -1.55052e-014 5.56597e-015
lhumerus -33.3524 -48.2765 106.581
lradius 129.909
lwrist -0.257896
lhand -36.4633 -329.077
lfingers 7.12502
lthumb -9.55687 60.6865
rfemur -60.472 -7.46817 18.0521
rtibia 49.4228
rfoot -10.0516 1.3834
rtoes -21.3732
lfemur -367.482 -8.75323 -381.458
ltibia 28.7086
lfoot -39.5063 39.4364
ltoes -14.667
365
root 7.6854 14.5006 -26.2307 -340.87 375.52 1.61288
lowerback 5.01514 -3.88301 -3.97549
upperback -0.522721 -5.2895 4.38074
thorax -2.57239 -2.56062 7.15268
lowerneck 0.316068 -13.4083 -10.1432
upperneck -8.60538 -17.5135 13.3297
head -0.496127 -8.86914 5.35184
rclavicle -1.86858e-014 3.81667e-014
rhumerus -15.7841 49.4494 -90.927
rradius 128.524
rwrist 8.72591
rhand -42.6953 57.5035
rfingers 7.12502
rthumb -15.5649 28.1099
lclavicle -1.86858e-014 3.81667e-014
lhumerus -32.3102 -48.7755 105.819
lradius 129.585
lwrist -0.291169
lhand -36.5375 -329.379
lfingers 7.12502
lthumb -9.62844 60.3812
rfemur -60.1248 -7.48869 18.4947
rtibia 49.3626
rfoot -11.273 0.858459
rtoes -23.7708
lfemur -366.887 -8.31804 -381.649
ltibia 28.5161
lfoot -39.2187 39.81
ltoes -14.4489
366
root 7.6477 14.4924 -26.2616 -341.239 374.605 1.65763
lowerback 4.89918 -4.00666 -3.91807
upperback -0.554467 -5.44994 4.35569
thorax -2.52398 -2.64324 7.09207
lowerneck 0.387059 -13.1768 -10.0376
upperneck -8.73836 -17.1996 13.2171
head -0.601441 -8.71468 5.33763
rclavicle -4.53229e-014 6.36111e-015
rhumerus -15.5578 49.0398 -90.5419
rradius 128.543
rwrist 8.50816
rhand -41.3806 59.0853
rfingers 7.12502
rthumb -14.2984 29.5977
lclavicle -4.53229e-014 6.36111e-015
lhumerus -31.7408 -49.0431 105.231
lradius 129.53
lwrist -0.310716
lhand -36.6 -329.724
lfingers 7.12502
lthumb -9.68877 60.0329
rfemur -60.0825 -8.01707 19.1685
rtibia 49.4754
rfoot -12.2795 0.210556
rtoes -26.6238
lfemur -366.499 -7.35491 -381.826
ltibia 28.4467
lfoot -39.503 39.1664
ltoes -12.7524
